<svg xmlns="http://www.w3.org/2000/svg" width="560" height="440" viewBox="0 0 560 440"><rect width="100%" height="100%" fill="#111F38"/><path fill="#C9A84C" d="M126.445 206.51v3.42h-6.76v18.99h-4.17v-18.99h-6.76v-3.42zm5.36 12.63h7.22q0-.74-.21-1.4-.2-.66-.62-1.16-.42-.49-1.06-.78-.65-.29-1.5-.29-1.66 0-2.61.95-.96.94-1.22 2.68m9.77 2.31h-9.85q.1 1.22.44 2.11.34.9.9 1.48.55.58 1.32.87.77.28 1.7.28t1.6-.21q.68-.22 1.18-.49.51-.26.88-.48.38-.21.74-.21.48 0 .71.35l1.1 1.4q-.63.74-1.42 1.25-.79.5-1.65.8t-1.75.43q-.89.12-1.73.12-1.66 0-3.09-.55-1.42-.55-2.48-1.63-1.05-1.07-1.65-2.66-.61-1.59-.61-3.68 0-1.63.53-3.06.52-1.44 1.51-2.5.98-1.06 2.4-1.68t3.2-.62q1.51 0 2.78.48t2.18 1.4q.92.92 1.44 2.27.52 1.34.52 3.06 0 .86-.19 1.17-.19.3-.71.3m16.16-6.46-1 1.39q-.18.22-.34.34-.16.13-.47.13-.3 0-.57-.18-.28-.18-.67-.41-.39-.22-.92-.4-.54-.18-1.33-.18-1.01 0-1.77.37-.75.36-1.26 1.04-.5.69-.75 1.65-.25.97-.25 2.2 0 1.27.27 2.26t.79 1.67q.51.67 1.24 1.02.72.35 1.64.35.91 0 1.48-.23.56-.22.95-.49t.68-.5q.28-.22.64-.22.46 0 .7.35l1.1 1.4q-.64.74-1.38 1.25-.75.5-1.54.8-.8.3-1.65.43-.84.12-1.68.12-1.47 0-2.77-.55-1.31-.55-2.28-1.6-.98-1.06-1.54-2.58-.57-1.53-.57-3.48 0-1.75.5-3.25.51-1.5 1.48-2.59.98-1.09 2.42-1.71t3.32-.62q1.78 0 3.12.57 1.34.58 2.41 1.65m6.37-9.1v8.83q.93-.87 2.05-1.41t2.62-.54q1.3 0 2.31.44t1.68 1.24 1.02 1.91.35 2.44v10.12h-3.83V218.8q0-1.46-.66-2.26-.67-.8-2.03-.8-1 0-1.86.45-.87.45-1.65 1.23v11.5h-3.83v-23.03zm18.43 19.78h4.22q1.16 0 1.95-.28t1.26-.75q.48-.46.69-1.08t.21-1.32q0-.73-.24-1.31-.23-.58-.72-.99-.5-.41-1.28-.63-.79-.22-1.89-.22h-4.2zm3.55-15.94h-3.55v6.48h3.32q2.14 0 3.23-.77 1.09-.78 1.09-2.47 0-1.75-.99-2.5-.99-.74-3.1-.74m-7.72-3.22h7.72q2.2 0 3.77.42 1.56.41 2.56 1.19 1 .77 1.47 1.87.46 1.11.46 2.48 0 .8-.23 1.52t-.72 1.34q-.49.63-1.24 1.14t-1.79.87q4.62 1.04 4.62 4.99 0 1.43-.54 2.64-.55 1.21-1.58 2.08-1.04.88-2.56 1.37-1.52.5-3.47.5h-8.47zm23.64-.62v8.83q.93-.87 2.05-1.41 1.11-.54 2.62-.54 1.3 0 2.31.44 1 .44 1.68 1.24.67.8 1.02 1.91t.35 2.44v10.12h-3.83V218.8q0-1.46-.67-2.26-.66-.8-2.03-.8-.99 0-1.86.45-.86.45-1.64 1.23v11.5h-3.83v-23.03zm22.06 18.92v-2.68q-1.66.08-2.79.29t-1.82.53q-.68.33-.97.76-.3.44-.3.95 0 1.01.6 1.44t1.56.43q1.18 0 2.04-.42.86-.43 1.68-1.3m-8.09-8.35-.69-1.23q2.75-2.51 6.61-2.51 1.39 0 2.49.46t1.86 1.27 1.16 1.95q.39 1.13.39 2.48v10.04h-1.73q-.55 0-.84-.16-.29-.17-.47-.66l-.34-1.15q-.6.54-1.17.95-.58.42-1.2.69-.62.28-1.32.43-.71.15-1.56.15-1.01 0-1.86-.27t-1.47-.82q-.62-.54-.96-1.35-.35-.8-.35-1.87 0-.61.21-1.2.2-.6.65-1.14.46-.54 1.19-1.02.73-.49 1.79-.84 1.06-.36 2.47-.58 1.41-.23 3.23-.27v-.93q0-1.6-.68-2.37-.69-.77-1.97-.77-.93 0-1.55.22-.61.22-1.07.49l-.85.49q-.38.22-.84.22-.41 0-.68-.21-.28-.21-.45-.49m18.8-2.48.23 1.8q.74-1.43 1.77-2.24 1.02-.82 2.42-.82 1.1 0 1.76.48l-.25 2.87q-.07.28-.22.4-.15.11-.4.11-.23 0-.69-.08-.45-.07-.89-.07-.63 0-1.13.18-.49.19-.89.54-.39.35-.7.84-.3.5-.56 1.13v9.8h-3.83v-15.9h2.25q.59 0 .82.21t.31.75m16.58 10.83v-2.68q-1.66.08-2.79.29t-1.81.53q-.68.33-.98.76-.29.44-.29.95 0 1.01.59 1.44.6.43 1.56.43 1.18 0 2.04-.42.86-.43 1.68-1.3m-8.09-8.35-.68-1.23q2.74-2.51 6.6-2.51 1.4 0 2.5.46t1.86 1.27 1.15 1.95q.4 1.13.4 2.48v10.04h-1.74q-.54 0-.83-.16-.3-.17-.47-.66l-.34-1.15q-.61.54-1.18.95-.57.42-1.19.69-.62.28-1.33.43-.7.15-1.56.15-1 0-1.86-.27-.85-.27-1.47-.82-.62-.54-.96-1.35-.34-.8-.34-1.87 0-.61.2-1.2.2-.6.66-1.14t1.19-1.02q.72-.49 1.79-.84 1.06-.36 2.47-.58 1.41-.23 3.22-.27v-.93q0-1.6-.68-2.37t-1.97-.77q-.93 0-1.54.22t-1.08.49q-.46.27-.84.49t-.85.22q-.4 0-.68-.21t-.45-.49m20.73 12.71q-2.08 0-3.19-1.17t-1.11-3.23v-8.89h-1.63q-.31 0-.52-.2-.22-.2-.22-.6v-1.52l2.56-.42.8-4.34q.08-.31.3-.48t.56-.17h1.98v5.01h4.25v2.72h-4.25v8.62q0 .75.36 1.17.37.41 1 .41.36 0 .6-.08.24-.09.42-.18t.32-.18q.14-.08.28-.08.17 0 .28.08.1.09.23.26l1.14 1.86q-.83.7-1.92 1.05-1.08.36-2.24.36m29.76-5.54q.34 0 .6.27l1.64 1.78q-1.36 1.69-3.35 2.59t-4.78.9q-2.5 0-4.49-.85-1.99-.86-3.4-2.38t-2.17-3.62q-.75-2.11-.75-4.61 0-2.52.81-4.62.8-2.1 2.27-3.62 1.46-1.52 3.49-2.37 2.03-.84 4.5-.84 2.45 0 4.35.8 1.9.81 3.23 2.11l-1.4 1.94q-.12.19-.31.33-.2.14-.54.14-.23 0-.48-.14-.25-.13-.54-.32-.3-.2-.68-.43-.39-.23-.9-.42-.51-.2-1.19-.33-.67-.13-1.56-.13-1.5 0-2.75.53-1.25.54-2.14 1.55-.9 1.02-1.4 2.48-.5 1.47-.5 3.34 0 1.89.54 3.37.53 1.47 1.45 2.48.91 1 2.15 1.54 1.24.53 2.67.53.85 0 1.54-.09t1.27-.29q.58-.21 1.1-.52.52-.32 1.03-.79.16-.14.33-.22.17-.09.36-.09m11.54-10.86q1.77 0 3.22.57 1.45.58 2.48 1.63t1.59 2.57.56 3.4q0 1.89-.56 3.41t-1.59 2.59-2.48 1.64-3.22.57q-1.78 0-3.24-.57-1.45-.57-2.48-1.64-1.04-1.07-1.6-2.59-.57-1.52-.57-3.41 0-1.88.57-3.4.56-1.52 1.6-2.57 1.03-1.05 2.48-1.63 1.46-.57 3.24-.57m0 13.44q1.99 0 2.94-1.34.95-1.33.95-3.9t-.95-3.92-2.94-1.35q-2.01 0-2.98 1.35-.97 1.36-.97 3.92t.97 3.9 2.98 1.34m14.6 2.71h-3.82v-15.9h2.34q.74 0 .97.69l.25 1.18q.42-.46.88-.85.45-.39.97-.67t1.12-.44 1.31-.16q1.5 0 2.47.81.97.82 1.45 2.16.37-.79.93-1.35.56-.57 1.22-.92.67-.36 1.42-.53t1.51-.17q1.32 0 2.34.4 1.03.4 1.72 1.18.7.78 1.07 1.89.36 1.12.36 2.56v10.12h-3.83V218.8q0-1.52-.66-2.29-.67-.77-1.96-.77-.59 0-1.09.21-.5.2-.88.58t-.6.95-.22 1.32v10.12h-3.84V218.8q0-1.6-.64-2.33-.65-.73-1.89-.73-.83 0-1.56.42-.72.41-1.34 1.12zm25.97-11.25v7.13q.65.79 1.41 1.11.77.33 1.67.33.87 0 1.57-.33.69-.32 1.18-.99t.75-1.68q.27-1.02.27-2.4 0-1.39-.23-2.36-.22-.97-.64-1.57-.42-.61-1.02-.89-.59-.28-1.35-.28-1.2 0-2.03.51-.84.5-1.58 1.42m-.52-3.96.31 1.48q.98-1.1 2.22-1.79 1.24-.68 2.92-.68 1.3 0 2.37.55 1.08.54 1.86 1.57.79 1.03 1.21 2.54.43 1.51.43 3.46 0 1.79-.48 3.31t-1.37 2.63q-.89 1.12-2.16 1.74-1.26.63-2.83.63-1.33 0-2.27-.41-.95-.41-1.69-1.14v6.51h-3.83v-21.09h2.34q.74 0 .97.69m21.33-.94q1.77 0 3.22.57 1.45.58 2.48 1.63t1.59 2.57.56 3.4q0 1.89-.56 3.41t-1.59 2.59-2.48 1.64-3.22.57q-1.78 0-3.24-.57-1.45-.57-2.48-1.64-1.04-1.07-1.6-2.59-.57-1.52-.57-3.41 0-1.88.57-3.4.56-1.52 1.6-2.57 1.03-1.05 2.48-1.63 1.46-.57 3.24-.57m0 13.44q1.99 0 2.94-1.34.95-1.33.95-3.9t-.95-3.92-2.94-1.35q-2.01 0-2.98 1.35-.97 1.36-.97 3.92t.97 3.9 2.98 1.34m14.09-12.5.27 1.26q.48-.48 1.01-.89.54-.41 1.13-.7.6-.29 1.28-.45t1.49-.16q1.3 0 2.31.44t1.68 1.24 1.02 1.91.35 2.44v10.12h-3.83V218.8q0-1.46-.66-2.26-.67-.8-2.03-.8-1 0-1.86.45-.87.45-1.65 1.23v11.5h-3.82v-15.9h2.34q.74 0 .97.69m17.19 5.43h7.22q0-.74-.2-1.4-.21-.66-.63-1.16-.42-.49-1.06-.78-.65-.29-1.5-.29-1.66 0-2.61.95-.95.94-1.22 2.68m9.77 2.31h-9.85q.1 1.22.44 2.11.34.9.9 1.48t1.32.87q.77.28 1.7.28t1.6-.21q.68-.22 1.18-.49.51-.26.89-.48.38-.21.73-.21.48 0 .71.35l1.11 1.4q-.64.74-1.43 1.25-.79.5-1.65.8t-1.75.43q-.89.12-1.73.12-1.66 0-3.09-.55-1.42-.55-2.48-1.63-1.05-1.07-1.65-2.66-.61-1.59-.61-3.68 0-1.63.53-3.06.53-1.44 1.51-2.5t2.4-1.68 3.2-.62q1.51 0 2.78.48t2.18 1.4q.92.92 1.44 2.27.52 1.34.52 3.06 0 .86-.19 1.17-.19.3-.71.3m7.08-7.74.26 1.26q.48-.48 1.02-.89.53-.41 1.13-.7t1.28-.45 1.49-.16q1.3 0 2.31.44 1 .44 1.68 1.24.67.8 1.02 1.91t.35 2.44v10.12h-3.83V218.8q0-1.46-.66-2.26-.67-.8-2.04-.8-.99 0-1.86.45-.86.45-1.64 1.23v11.5h-3.83v-15.9h2.34q.75 0 .98.69m19.47 15.46q-2.08 0-3.19-1.17t-1.11-3.23v-8.89h-1.62q-.31 0-.53-.2t-.22-.6v-1.52l2.56-.42.81-4.34q.07-.31.29-.48t.56-.17h1.98v5.01h4.25v2.72h-4.25v8.62q0 .75.37 1.17.36.41 1 .41.35 0 .59-.08.24-.09.42-.18t.32-.18q.14-.08.28-.08.17 0 .28.08.11.09.23.26l1.15 1.86q-.84.7-1.92 1.05-1.09.36-2.25.36m16.8-14.43-.87 1.38q-.15.25-.32.35t-.44.1q-.28 0-.59-.16-.32-.15-.74-.35-.42-.19-.95-.35-.54-.15-1.27-.15-1.13 0-1.77.48t-.64 1.25q0 .52.33.87.33.34.88.61.55.26 1.25.47t1.42.46 1.42.56q.69.32 1.24.81t.89 1.17q.33.68.33 1.64 0 1.15-.41 2.12t-1.22 1.67q-.8.71-1.99 1.1-1.18.4-2.73.4-.83 0-1.61-.15t-1.5-.41-1.34-.62q-.61-.36-1.07-.78l.88-1.45q.17-.27.4-.4.24-.14.59-.14.36 0 .68.2t.73.43q.42.23.99.44.56.2 1.43.2.68 0 1.17-.17.49-.16.81-.42.32-.27.46-.61.15-.35.15-.73 0-.55-.33-.91-.34-.36-.89-.62t-1.25-.47q-.71-.21-1.44-.46-.74-.25-1.45-.58-.7-.33-1.25-.85-.55-.51-.88-1.25-.34-.75-.34-1.8 0-.98.39-1.86t1.14-1.54 1.87-1.06q1.13-.39 2.6-.39 1.64 0 2.99.54t2.25 1.43"/></svg>